<svg width="32" height="33" viewBox="0 0 32 33" fill="none" xmlns="http://www.w3.org/2000/svg">
<g clip-path="url(#clip0_2_2470)">
<path d="M16.0219 26.5936V32.79C26.4875 32.79 34.6316 22.6782 31.2065 11.692C29.6843 6.90217 25.8785 3.06272 21.0833 1.58015C10.1231 -1.84115 0 6.33196 0 16.7859H6.20324C6.20324 10.2475 12.7109 5.1535 19.6372 7.66246C22.1871 8.57481 24.2421 10.6276 25.1555 13.1746C27.6672 20.0932 22.6056 26.5936 16.0219 26.5936Z" fill="#3387FF"/>
<path d="M9.85547 26.6315H16.0207V20.4731H9.85547V26.6315Z" fill="#3387FF"/>
<path d="M9.85573 31.3832H5.09863V26.6316L9.85537 26.6313L9.85573 31.3832Z" fill="#3387FF"/>
<path d="M1.104 26.6318H5.0619V22.6782H1.104V26.6318Z" fill="#3387FF"/>
</g>
<defs>
<clipPath id="clip0_2_2470">
<rect width="32" height="32" fill="white" transform="translate(0 0.790039)"/>
</clipPath>
</defs>
</svg>
